<?xml version="1.0" encoding="utf-8"?>
<!DOCTYPE svg PUBLIC "-//W3C//DTD SVG 1.1//EN" "http://www.w3.org/Graphics/SVG/1.1/DTD/svg11.dtd">
<svg version="1.1" id="Layer_1" xmlns="http://www.w3.org/2000/svg" xmlns:xlink="http://www.w3.org/1999/xlink" x="0px" y="0px"
	 width="30px" height="30px" viewBox="0 0 30 30" enable-background="new 0 0 30 30" xml:space="preserve">
<rect fill="#30C430" width="30" height="30"/>
<g>
	<path fill="#FFFFFF" d="M4.832,7.152h8.189v1.595H6.621v4.526c0.244-0.043,0.546-0.086,0.905-0.129
		c0.359-0.043,0.704-0.064,1.034-0.064c0.733,0,1.43,0.068,2.091,0.205c0.661,0.137,1.243,0.37,1.746,0.7
		c0.503,0.331,0.901,0.78,1.196,1.347c0.294,0.568,0.441,1.282,0.441,2.145c0,0.861-0.15,1.605-0.452,2.23s-0.704,1.136-1.207,1.53
		c-0.504,0.396-1.088,0.689-1.756,0.884c-0.668,0.193-1.369,0.291-2.102,0.291c-0.244,0-0.521-0.004-0.83-0.011
		c-0.309-0.008-0.632-0.025-0.97-0.055c-0.338-0.028-0.668-0.061-0.992-0.097s-0.622-0.09-0.894-0.161V7.152z M8.733,20.859
		c0.459,0,0.897-0.064,1.314-0.194c0.417-0.13,0.779-0.32,1.088-0.571c0.309-0.251,0.553-0.571,0.733-0.959
		c0.179-0.388,0.269-0.841,0.269-1.357c0-0.661-0.104-1.196-0.313-1.606c-0.208-0.409-0.485-0.729-0.83-0.958
		c-0.345-0.229-0.744-0.384-1.196-0.463C9.347,14.67,8.876,14.63,8.388,14.63c-0.129,0-0.28,0.008-0.453,0.022
		c-0.172,0.014-0.345,0.029-0.517,0.043c-0.172,0.015-0.331,0.032-0.474,0.054s-0.251,0.04-0.323,0.054v5.926
		c0.101,0.029,0.233,0.051,0.399,0.065c0.165,0.014,0.345,0.028,0.539,0.043c0.194,0.014,0.391,0.021,0.593,0.021
		C8.352,20.859,8.546,20.859,8.733,20.859z"/>
	<path fill="#FFFFFF" d="M24.379,21.376c-0.431,0.345-0.974,0.618-1.627,0.819s-1.347,0.302-2.079,0.302
		c-0.819,0-1.53-0.133-2.134-0.398c-0.604-0.267-1.1-0.647-1.487-1.143s-0.676-1.089-0.862-1.778s-0.28-1.466-0.28-2.327
		c0-1.839,0.41-3.24,1.229-4.203c0.819-0.962,1.99-1.444,3.513-1.444c0.488,0,0.978,0.054,1.466,0.162
		c0.488,0.107,0.927,0.313,1.314,0.614c0.389,0.301,0.704,0.729,0.948,1.282s0.367,1.282,0.367,2.188
		c0,0.474-0.044,0.999-0.13,1.573h-6.918c0,0.633,0.064,1.192,0.194,1.681c0.129,0.489,0.33,0.902,0.604,1.239
		c0.272,0.338,0.628,0.597,1.066,0.776s0.974,0.27,1.605,0.27c0.488,0,0.977-0.086,1.466-0.259c0.488-0.173,0.854-0.373,1.099-0.604
		L24.379,21.376z M20.673,12.712c-0.849,0-1.527,0.223-2.037,0.668s-0.815,1.207-0.916,2.284h5.345c0-1.092-0.208-1.857-0.625-2.295
		C22.022,12.932,21.434,12.712,20.673,12.712z"/>
</g>
</svg>
